<?xml version="1.0" standalone="no"?>
<!DOCTYPE svg PUBLIC "-//W3C//DTD SVG 20010904//EN"
 "http://www.w3.org/TR/2001/REC-SVG-20010904/DTD/svg10.dtd">
<svg version="1.0" xmlns="http://www.w3.org/2000/svg"
 width="512.000000pt" height="512.000000pt" viewBox="0 0 512.000000 512.000000"
 preserveAspectRatio="xMidYMid meet">
<metadata>
Created by potrace 1.11, written by Peter Selinger 2001-2013
</metadata>
<g transform="translate(0.000000,512.000000) scale(0.100000,-0.100000)"
fill="#000000" stroke="none">
<path d="M2379 5095 c-2 -2 -33 -6 -69 -9 -36 -3 -76 -7 -90 -9 -167 -26 -242
-42 -376 -81 -237 -69 -474 -179 -689 -321 -62 -41 -119 -80 -126 -88 -8 -7
-23 -19 -35 -27 -91 -64 -310 -279 -407 -400 -157 -195 -300 -441 -391 -670
-42 -108 -110 -333 -122 -409 -6 -34 -10 -58 -19 -101 -22 -114 -30 -217 -30
-415 0 -173 8 -324 19 -355 3 -8 7 -33 10 -55 17 -138 76 -355 143 -525 319
-808 1040 -1406 1889 -1565 178 -33 248 -39 459 -40 170 0 302 7 360 19 11 2
43 7 70 10 226 30 534 135 775 263 594 316 1052 870 1238 1498 58 197 82 316
100 495 14 143 5 569 -12 599 -2 3 -7 30 -10 60 -4 30 -14 86 -22 125 -146
660 -526 1213 -1094 1591 -129 85 -365 205 -511 259 -94 34 -329 100 -399 111
-19 3 -46 7 -60 10 -14 2 -44 7 -67 10 -23 3 -57 8 -75 11 -38 6 -454 15 -459
9z m876 -1299 c325 -38 547 -173 685 -419 18 -32 31 -59 29 -61 -2 -2 -78 -45
-168 -96 l-164 -94 -20 30 c-62 87 -178 167 -302 210 -198 66 -470 27 -581
-85 -85 -85 -112 -222 -62 -316 58 -108 202 -167 518 -209 97 -13 134 -20 237
-46 116 -29 145 -40 253 -93 154 -76 267 -204 318 -360 31 -94 37 -146 36
-292 -1 -228 -57 -369 -203 -515 -73 -73 -102 -94 -191 -138 -247 -122 -588
-151 -898 -75 -258 62 -441 211 -566 458 -53 107 -55 99 27 145 40 23 79 45
87 50 8 5 44 26 80 46 36 21 75 44 87 51 20 14 23 11 57 -54 60 -114 149 -197
269 -253 104 -49 179 -64 317 -64 142 -1 171 3 264 34 165 55 256 171 256 329
0 208 -167 320 -545 366 -86 11 -277 52 -345 75 -242 81 -384 203 -454 390
-32 88 -37 116 -41 250 -7 202 43 348 162 476 185 199 517 300 858 260z
m-2075 -373 c79 -44 229 -127 270 -150 19 -11 140 -77 268 -148 128 -71 237
-136 241 -144 5 -9 11 -41 14 -72 20 -184 96 -348 218 -471 l67 -67 -86 -54
c-48 -30 -305 -193 -572 -362 -267 -169 -502 -318 -522 -331 l-38 -24 0 950 0
951 43 -24 c23 -13 67 -37 97 -54z"/>
</g>
</svg>
